<svg xmlns="http://www.w3.org/2000/svg" viewBox="0 0 68 85" x="0px" y="0px"><path fill="#000000" d="M723.414214,480.585786 C724.195262,481.366835 724.195262,482.633165 723.414214,483.414214 C722.633165,484.195262 721.366835,484.195262 720.585786,483.414214 L656.585786,419.414214 C655.804738,418.633165 655.804738,417.366835 656.585786,416.585786 C657.366835,415.804738 658.633165,415.804738 659.414214,416.585786 L723.414214,480.585786 Z M703.414214,480.585786 C704.195262,481.366835 704.195262,482.633165 703.414214,483.414214 C702.633165,484.195262 701.366835,484.195262 700.585786,483.414214 L656.585786,439.414214 C655.804738,438.633165 655.804738,437.366835 656.585786,436.585786 C657.366835,435.804738 658.633165,435.804738 659.414214,436.585786 L703.414214,480.585786 Z M723.414214,460.585786 C724.195262,461.366835 724.195262,462.633165 723.414214,463.414214 C722.633165,464.195262 721.366835,464.195262 720.585786,463.414214 L676.585786,419.414214 C675.804738,418.633165 675.804738,417.366835 676.585786,416.585786 C677.366835,415.804738 678.633165,415.804738 679.414214,416.585786 L723.414214,460.585786 Z M683.414214,480.585786 C684.195262,481.366835 684.195262,482.633165 683.414214,483.414214 C682.633165,484.195262 681.366835,484.195262 680.585786,483.414214 L656.585786,459.414214 C655.804738,458.633165 655.804738,457.366835 656.585786,456.585786 C657.366835,455.804738 658.633165,455.804738 659.414214,456.585786 L683.414214,480.585786 Z M723.414214,440.585786 C724.195262,441.366835 724.195262,442.633165 723.414214,443.414214 C722.633165,444.195262 721.366835,444.195262 720.585786,443.414214 L696.585786,419.414214 C695.804738,418.633165 695.804738,417.366835 696.585786,416.585786 C697.366835,415.804738 698.633165,415.804738 699.414214,416.585786 L723.414214,440.585786 Z M663.414214,480.585786 C664.195262,481.366835 664.195262,482.633165 663.414214,483.414214 C662.633165,484.195262 661.366835,484.195262 660.585786,483.414214 L656.585786,479.414214 C655.804738,478.633165 655.804738,477.366835 656.585786,476.585786 C657.366835,475.804738 658.633165,475.804738 659.414214,476.585786 L663.414214,480.585786 Z M723.414214,420.585786 C724.195262,421.366835 724.195262,422.633165 723.414214,423.414214 C722.633165,424.195262 721.366835,424.195262 720.585786,423.414214 L716.585786,419.414214 C715.804738,418.633165 715.804738,417.366835 716.585786,416.585786 C717.366835,415.804738 718.633165,415.804738 719.414214,416.585786 L723.414214,420.585786 Z" transform="translate(-656 -416)"/><text x="0" y="83" fill="#000000" font-size="5px" font-weight="bold" font-family="'Helvetica Neue', Helvetica, Arial-Unicode, Arial, Sans-serif">Created by Andrejs Kirma</text><text x="0" y="88" fill="#000000" font-size="5px" font-weight="bold" font-family="'Helvetica Neue', Helvetica, Arial-Unicode, Arial, Sans-serif">from the Noun Project</text></svg>